<?xml version="1.0" encoding="UTF-8" standalone="no" ?>
<!DOCTYPE svg PUBLIC "-//W3C//DTD SVG 1.1//EN" "http://www.w3.org/Graphics/SVG/1.1/DTD/svg11.dtd">
<svg xmlns="http://www.w3.org/2000/svg" xmlns:xlink="http://www.w3.org/1999/xlink" version="1.1" width="1080" height="1080" viewBox="0 0 1080 1080" xml:space="preserve">
<desc>Created with Fabric.js 5.2.4</desc>
<defs>
</defs>
<rect x="0" y="0" width="100%" height="100%" fill="transparent"></rect>
<g transform="matrix(1 0 0 1 540 540)" id="dce46a13-0235-48cc-8c2b-f295cfc01386"  >
<rect style="stroke: none; stroke-width: 1; stroke-dasharray: none; stroke-linecap: butt; stroke-dashoffset: 0; stroke-linejoin: miter; stroke-miterlimit: 4; fill: rgb(255,255,255); fill-rule: nonzero; opacity: 1;" vector-effect="non-scaling-stroke"  x="-540" y="-540" rx="0" ry="0" width="1080" height="1080" />
</g>
<g transform="matrix(1 0 0 1 540 540)" id="1d85d368-a226-47e7-afde-c7b49003b31f"  >
</g>
<g transform="matrix(1 0 0 1 540 540)" id="511e753c-afd9-4cd6-98aa-59acee525066"  >
<path style="stroke: rgb(0,0,0); stroke-width: 0; stroke-dasharray: none; stroke-linecap: butt; stroke-dashoffset: 0; stroke-linejoin: miter; stroke-miterlimit: 4; fill: rgb(0,0,0); fill-rule: nonzero; opacity: 1;" vector-effect="non-scaling-stroke"  transform=" translate(-256, -154.44)" d="M 120.81043 80.5613102 L 217.378325 80.5613102 L 217.378325 88.2366589 L 129.662487 88.2366589 L 129.662487 146.003758 L 212.147564 146.003758 L 212.147564 153.679106 L 129.662487 153.679106 L 129.662487 217.101725 L 218.384241 217.101725 L 218.384241 224.77707299999997 L 120.81043 224.77707299999997 z M 226.0292 80.5613102 L 236.289538 80.5613102 L 281.756922 143.983929 L 328.23022199999997 80.56131019999998 L 391.44148599999994 -1.4210854715202004e-14 L 287.59123199999993 150.649363 L 341.1059409999999 224.77707299999997 L 330.4432369999999 224.77707299999997 L 281.7569219999999 157.31479799999997 L 232.86942499999992 224.77707299999997 L 222.40790399999992 224.77707299999997 L 276.32497799999993 150.649363 z M 344.928421 88.2366588 L 344.928421 80.5613102 L 454.975585 80.5613102 L 454.975585 88.2366589 L 404.27744 88.2366589 L 404.27744 224.77707299999997 L 395.425382 224.77707299999997 L 395.425382 88.23665889999998 z M 0 80.5613102 L 11.0650714 80.5613102 L 163.64593 308.884007 L 100.59155799999999 224.777073 L 9.254423309999993 91.4683847 L 8.852057079999993 224.777073 L -7.105427357601002e-15 224.777073 z M 454.083705 214.78546899999998 C 452.275167 214.78546899999998 450.918762 213.38418 450.918762 211.57328499999997 C 450.918762 209.76238799999996 452.275167 208.36109899999997 454.083705 208.36109899999997 C 455.913774 208.36109899999997 457.248648 209.76238799999996 457.248648 211.57328499999997 C 457.248648 213.38417999999996 455.913774 214.78546899999998 454.083705 214.78546899999998 z M 462.781915 206.33461799999998 L 467.51856300000003 206.33461799999998 C 467.58315300000004 208.90005499999998 469.45628400000004 210.62471899999997 472.212151 210.62471899999997 C 475.290972 210.62471899999997 477.03492 208.77070499999996 477.03492 205.29981999999998 L 477.03492 183.310363 L 481.85769 183.310363 L 481.85769 205.321379 C 481.85769 211.573285 478.240613 215.173518 472.255212 215.173518 C 466.63582399999996 215.173518 462.78191499999997 211.681076 462.78191499999997 206.334618 z M 488.16604500000005 206.05436199999997 L 492.9457540000001 206.05436199999997 C 493.35482800000005 209.00784799999997 496.2398780000001 210.88341899999998 500.3952110000001 210.88341899999998 C 504.2706520000001 210.88341899999998 507.11264000000006 208.87849799999998 507.11264000000006 206.11903599999997 C 507.11264000000006 203.74762499999997 505.30410200000006 202.32477699999995 501.19182800000004 201.35465299999996 L 497.18720900000005 200.38453099999995 C 491.56782000000004 199.06947399999996 489.00572300000005 196.35312899999997 489.00572300000005 191.78277199999997 C 489.00572300000005 186.24228999999997 493.52707100000003 182.55582299999998 500.30909 182.55582299999998 C 506.61744500000003 182.55582299999998 511.224912 186.24228999999997 511.50480500000003 191.48095499999997 L 506.81121700000006 191.48095499999997 C 506.35908300000006 188.61370299999996 503.86157600000007 186.82436499999997 500.2444990000001 186.82436499999997 C 496.43365000000006 186.82436499999997 493.8930850000001 188.65681899999998 493.8930850000001 191.45939799999996 C 493.8930850000001 193.67990099999997 495.5293800000001 194.95183999999998 499.5770630000001 195.90040599999998 L 503.00036800000015 196.74117799999996 C 509.37331400000016 198.22870199999997 512.0000000000001 200.81569499999995 512.0000000000001 205.49384599999996 C 512.0000000000001 211.44393499999995 507.3925330000001 215.17351799999997 500.0291970000001 215.17351799999997 C 493.1395260000001 215.17351799999997 488.51053000000013 211.61639999999997 488.1660450000001 206.05436199999997 z" stroke-linecap="round" />
</g>
</svg>