<?xml version="1.0" encoding="UTF-8" standalone="no" ?>
<!DOCTYPE svg PUBLIC "-//W3C//DTD SVG 1.1//EN" "http://www.w3.org/Graphics/SVG/1.1/DTD/svg11.dtd">
<svg xmlns="http://www.w3.org/2000/svg" xmlns:xlink="http://www.w3.org/1999/xlink" version="1.1" width="1080" height="1080" viewBox="0 0 1080 1080" xml:space="preserve">
<desc>Created with Fabric.js 5.2.4</desc>
<defs>
</defs>
<rect x="0" y="0" width="100%" height="100%" fill="transparent"></rect>
<g transform="matrix(1 0 0 1 540 540)" id="75c2f399-8496-49f6-b424-0cdaf0de0d82"  >
</g>
<g transform="matrix(1 0 0 1 540 540)" id="e51c92fa-1fd4-49e5-a9d6-ec5af9d6730c"  >
<rect style="stroke: none; stroke-width: 1; stroke-dasharray: none; stroke-linecap: butt; stroke-dashoffset: 0; stroke-linejoin: miter; stroke-miterlimit: 4; fill: rgb(255,255,255); fill-rule: nonzero; opacity: 1; visibility: hidden;" vector-effect="non-scaling-stroke"  x="-540" y="-540" rx="0" ry="0" width="1080" height="1080" />
</g>
<g transform="matrix(0 0 0 0 0 0)"  >
<g style=""   >
</g>
</g>
<g transform="matrix(0 0 0 0 0 0)"  >
<g style=""   >
</g>
</g>
<g transform="matrix(0 0 0 0 0 0)"  >
<g style=""   >
</g>
</g>
<g transform="matrix(8.79 0 0 8.79 540 540)"  >
<g style=""   >
		<g transform="matrix(1 0 0 1 12.28 -6.28)" id="Layer_1"  >
<path style="stroke: none; stroke-width: 1; stroke-dasharray: none; stroke-linecap: butt; stroke-dashoffset: 0; stroke-linejoin: miter; stroke-miterlimit: 4; fill: rgb(255,188,94); fill-rule: evenodd; opacity: 1;" vector-effect="non-scaling-stroke"  transform=" translate(-73.72, -42.96)" d="M 68.36 4.78 C 89.45 4.78 106.53999999999999 21.880000000000003 106.53999999999999 42.96 C 106.53999999999999 64.05 89.44 81.14 68.35999999999999 81.14 C 57.579999999999984 81.14 47.84999999999998 76.67 40.899999999999984 69.49 L 52.98999999999998 69.49 C 53.88999999999998 69.49 54.74999999999998 69.36 55.54999999999998 69.11 C 59.40999999999998 71.01 63.759999999999984 72.07 68.35999999999999 72.07 C 84.43999999999998 72.07 97.46999999999998 59.029999999999994 97.46999999999998 42.959999999999994 C 97.46999999999998 26.879999999999995 84.43999999999998 13.849999999999994 68.35999999999999 13.849999999999994 C 63.65999999999998 13.849999999999994 59.219999999999985 14.969999999999995 55.27999999999999 16.949999999999996 C 54.329999999999984 16.589999999999996 53.27999999999999 16.389999999999997 52.179999999999986 16.389999999999997 L 40.95 16.389999999999997 C 47.89 9.22 57.61 4.78 68.36 4.78 L 68.36 4.78 L 68.36 4.78 z" stroke-linecap="round" />
</g>
		<g transform="matrix(1 0 0 1 0 0)" id="Layer_1"  >
<path style="stroke: none; stroke-width: 1; stroke-dasharray: none; stroke-linecap: butt; stroke-dashoffset: 0; stroke-linejoin: miter; stroke-miterlimit: 4; fill: rgb(255,188,94); fill-rule: nonzero; opacity: 1;" vector-effect="non-scaling-stroke"  transform=" translate(-61.44, -49.24)" d="M 26.37 35.09 L 15.23 35.09 L 15.23 32.14 C 15.23 30.76 15.08 29.880000000000003 14.8 29.5 C 14.520000000000001 29.12 14.05 28.94 13.39 28.94 C 12.67 28.94 12.13 29.19 11.760000000000002 29.71 C 11.390000000000002 30.21 11.21 30.98 11.21 32.01 C 11.21 33.339999999999996 11.420000000000002 34.339999999999996 11.840000000000002 35.01 C 12.250000000000002 35.669999999999995 13.380000000000003 36.489999999999995 15.230000000000002 37.449999999999996 C 20.550000000000004 40.199999999999996 23.900000000000002 42.459999999999994 25.28 44.209999999999994 C 26.67 45.96999999999999 27.36 48.8 27.36 52.699999999999996 C 27.36 55.53999999999999 26.97 57.629999999999995 26.2 58.98 C 25.43 60.33 23.95 61.449999999999996 21.75 62.36 C 19.55 63.28 17 63.73 14.07 63.73 C 10.86 63.73 8.129999999999999 63.199999999999996 5.85 62.15 C 3.5799999999999996 61.1 2.1099999999999994 59.769999999999996 1.3999999999999995 58.14 C 0.6999999999999995 56.51 0.3499999999999994 54.2 0.3499999999999994 51.22 L 0.3499999999999994 48.6 L 11.49 48.6 L 11.49 53.45 C 11.49 54.940000000000005 11.65 55.910000000000004 11.96 56.330000000000005 C 12.270000000000001 56.760000000000005 12.83 56.970000000000006 13.620000000000001 56.970000000000006 C 14.420000000000002 56.970000000000006 15.010000000000002 56.7 15.4 56.160000000000004 C 15.790000000000001 55.620000000000005 15.98 54.82 15.98 53.760000000000005 C 15.98 51.42 15.610000000000001 49.88 14.870000000000001 49.160000000000004 C 14.100000000000001 48.440000000000005 12.240000000000002 47.230000000000004 9.260000000000002 45.53 C 6.280000000000001 43.82 4.320000000000001 42.58 3.3500000000000014 41.81 C 2.3900000000000015 41.04 1.5800000000000014 39.97 0.9500000000000015 38.61 C 0.32 37.24 0 35.5 0 33.38 C 0 30.330000000000002 0.45 28.090000000000003 1.35 26.680000000000003 C 2.25 25.270000000000003 3.7 24.17 5.720000000000001 23.370000000000005 C 7.73 22.570000000000004 10.15 22.180000000000003 13 22.180000000000003 C 16.11 22.180000000000003 18.759999999999998 22.620000000000005 20.95 23.480000000000004 C 23.14 24.350000000000005 24.59 25.450000000000003 25.299999999999997 26.770000000000003 C 26.009999999999998 28.090000000000003 26.369999999999997 30.330000000000002 26.369999999999997 33.5 L 26.369999999999997 35.09 L 26.37 35.09 z M 68.32 0 C 80.19 0 90.92999999999999 4.81 98.71 12.59 C 106.47999999999999 20.36 111.28999999999999 31.11 111.28999999999999 42.980000000000004 C 111.28999999999999 51.660000000000004 108.72 59.74000000000001 104.27999999999999 66.5 L 122.88 86.77 L 110.06 98.49 L 92.13 78.76 C 85.32 83.30000000000001 77.13 85.96000000000001 68.33 85.96000000000001 C 56.46 85.96000000000001 45.72 81.15 37.94 73.37 C 36.72 72.15 35.57 70.85000000000001 34.5 69.49000000000001 L 40.84 69.49000000000001 C 41 69.65 41.160000000000004 69.82000000000001 41.32 69.98 C 48.230000000000004 76.89 57.78 81.16 68.32 81.16 C 78.85999999999999 81.16 88.41 76.89 95.32 69.97999999999999 C 102.22999999999999 63.06999999999998 106.5 53.51999999999999 106.5 42.97999999999999 C 106.5 32.43999999999999 102.24 22.88999999999999 95.33 15.97999999999999 L 95.33 15.97999999999999 L 95.33 15.97999999999999 C 88.42 9.06999999999999 78.87 4.79999999999999 68.33 4.79999999999999 C 57.79 4.79999999999999 48.239999999999995 9.06999999999999 41.33 15.97999999999999 C 41.199999999999996 16.10999999999999 41.059999999999995 16.24999999999999 40.93 16.37999999999999 L 34.56 16.37999999999999 C 35.61 15.049999999999988 36.730000000000004 13.779999999999989 37.93 12.58999999999999 C 45.71 4.81 56.45 0 68.32 0 L 68.32 0 L 68.32 0 L 68.32 0 z M 31.63 22.99 L 52.18 22.99 L 52.18 30.95 L 43.65 30.95 L 43.65 38.56 L 51.65 38.56 L 51.65 46.120000000000005 L 43.65 46.120000000000005 L 43.65 54.89 L 52.989999999999995 54.89 L 52.989999999999995 62.85 L 31.63 62.85 L 31.63 22.99 L 31.63 22.99 z M 84.77 46.36 C 84.77 50.37 84.66 53.2 84.44 54.86 C 84.23 56.53 83.55 58.05 82.39999999999999 59.43 C 81.24999999999999 60.81 79.69999999999999 61.87 77.74 62.61 C 75.78 63.35 73.50999999999999 63.72 70.91 63.72 C 68.44 63.72 66.22999999999999 63.37 64.27 62.67 C 62.31 61.970000000000006 60.72 60.93 59.529999999999994 59.54 C 58.32999999999999 58.15 57.62 56.62 57.38999999999999 54.99 C 57.169999999999995 53.34 57.04999999999999 50.47 57.04999999999999 46.370000000000005 L 57.04999999999999 39.550000000000004 C 57.04999999999999 35.540000000000006 57.15999999999999 32.71000000000001 57.37999999999999 31.050000000000004 C 57.58999999999999 29.380000000000003 58.27999999999999 27.860000000000003 59.41999999999999 26.480000000000004 C 60.55999999999999 25.100000000000005 62.11999999999999 24.040000000000003 64.07999999999998 23.300000000000004 C 66.03999999999998 22.560000000000006 68.30999999999999 22.190000000000005 70.90999999999998 22.190000000000005 C 73.37999999999998 22.190000000000005 75.58999999999997 22.540000000000006 77.54999999999998 23.240000000000006 C 79.50999999999998 23.940000000000005 81.09999999999998 24.980000000000004 82.28999999999998 26.370000000000005 C 83.48999999999998 27.770000000000003 84.19999999999997 29.290000000000006 84.42999999999998 30.920000000000005 C 84.64999999999998 32.57000000000001 84.76999999999998 35.440000000000005 84.76999999999998 39.540000000000006 L 84.76999999999998 46.36 L 84.77 46.36 z M 72.75 33.27 C 72.75 31.42 72.63 30.240000000000002 72.4 29.720000000000002 C 72.17 29.21 71.69000000000001 28.950000000000003 70.97 28.950000000000003 C 70.36 28.950000000000003 69.89 29.160000000000004 69.56 29.580000000000002 C 69.24000000000001 29.990000000000002 69.07000000000001 31.23 69.07000000000001 33.28 L 69.07000000000001 51.89 C 69.07000000000001 54.2 69.18 55.63 69.39 56.17 C 69.6 56.72 70.1 56.980000000000004 70.88 56.980000000000004 C 71.67999999999999 56.980000000000004 72.19 56.67 72.42 56.050000000000004 C 72.65 55.43000000000001 72.75 53.940000000000005 72.75 51.6 L 72.75 33.27 L 72.75 33.27 z" stroke-linecap="round" />
</g>
</g>
</g>
<g transform="matrix(NaN NaN NaN NaN 0 0)"  >
<g style=""   >
</g>
</g>
<g transform="matrix(NaN NaN NaN NaN 0 0)"  >
<g style=""   >
</g>
</g>
<g transform="matrix(NaN NaN NaN NaN 0 0)"  >
<g style=""   >
</g>
</g>
</svg>