<?xml version="1.0" encoding="UTF-8" standalone="no" ?>
<!DOCTYPE svg PUBLIC "-//W3C//DTD SVG 1.1//EN" "http://www.w3.org/Graphics/SVG/1.1/DTD/svg11.dtd">
<svg xmlns="http://www.w3.org/2000/svg" xmlns:xlink="http://www.w3.org/1999/xlink" version="1.1" width="1080" height="1080" viewBox="0 0 1080 1080" xml:space="preserve">
<desc>Created with Fabric.js 5.2.4</desc>
<defs>
</defs>
<g transform="matrix(1 0 0 1 540 540)" id="4f53f578-c4c3-4774-b1ef-6b7baca1b361"  >
<rect style="stroke: none; stroke-width: 1; stroke-dasharray: none; stroke-linecap: butt; stroke-dashoffset: 0; stroke-linejoin: miter; stroke-miterlimit: 4; fill: rgb(255,255,255); fill-rule: nonzero; opacity: 1; visibility: hidden;" vector-effect="non-scaling-stroke"  x="-540" y="-540" rx="0" ry="0" width="1080" height="1080" />
</g>
<g transform="matrix(1 0 0 1 540 540)" id="edf55288-a517-4676-9db4-ae289ff17891"  >
</g>
<g transform="matrix(8.79 0 0 8.79 540 540)"  >
<g style=""   >
		<g transform="matrix(1 0 0 1 -0.19 0)" id="Layer_1"  >
<path style="stroke: none; stroke-width: 1; stroke-dasharray: none; stroke-linecap: butt; stroke-dashoffset: 0; stroke-linejoin: miter; stroke-miterlimit: 4; fill: rgb(255,188,94); fill-rule: evenodd; opacity: 1;" vector-effect="non-scaling-stroke"  transform=" translate(-61.25, -35.2)" d="M 16.3 0 L 106 0 C 107.1796145455261 0.005473937666625514 108.13452606233338 0.9603854544738999 108.14 2.140000000000001 L 108.14 39.52 L 104.78 37.25 L 104.78 8.91 L 17.78 8.91 L 17.78 61.35 L 104.78 61.35 L 104.78 55.77 L 108.14 57.28 L 108.14 62.47 C 108.1364772264949 62.90986289539537 108.00057697997393 63.338471365192305 107.75 63.699999999999996 L 119.51 63.699999999999996 C 121.28640984464889 63.79716443777705 122.67703825536474 65.26593483420815 122.67703825536474 67.045 C 122.67703825536474 68.82406516579185 121.28640984464889 70.29283556222295 119.51 70.39 L 3.35 70.39 C 2.111304988629418 70.45775300458938 0.9365791631784375 69.83543151482151 0.29684150157056255 68.77256203781799 C -0.3428961600373124 67.70969256081447 -0.3428961600373124 66.38030743918553 0.2968415015705621 65.31743796218201 C 0.9365791631784366 64.2545684851785 2.111304988629416 63.632246995410625 3.3499999999999983 63.7 L 14.549999999999999 63.7 C 14.295352651580652 63.34048353514135 14.159036627421226 62.91056376663855 14.159999999999998 62.470000000000006 L 14.159999999999998 2.14 C 14.159999999999998 1.5724367117433755 14.385463638381992 1.0281193381395821 14.786791488260787 0.6267914882607879 C 15.188119338139582 0.22546363838199368 15.732436711743375 -4.440892098500626e-16 16.3 0 Z M 28.74 3.45 C 29.261756295804627 3.4499999999999997 29.73213710680295 3.7642984095962326 29.93180459693956 4.246338372249033 C 30.13147208707617 4.7283783349018345 30.021105162620874 5.283230332840419 29.652167747730648 5.652167747730646 C 29.283230332840418 6.021105162620874 28.728378334901834 6.131472087076171 28.246338372249035 5.9318045969395605 C 27.764298409596233 5.732137106802949 27.45 5.26175629580463 27.45 4.74 C 27.45 4.0275526727182775 28.027552672718276 3.450000000000001 28.74 3.45 Z M 24.229999999999997 3.45 C 24.751756295804626 3.4499999999999997 25.222137106802947 3.7642984095962326 25.42180459693956 4.246338372249033 C 25.621472087076167 4.7283783349018345 25.511105162620872 5.283230332840419 25.142167747730646 5.652167747730646 C 24.773230332840416 6.021105162620874 24.218378334901832 6.131472087076171 23.736338372249033 5.9318045969395605 C 23.25429840959623 5.732137106802949 22.939999999999998 5.26175629580463 22.939999999999998 4.74 C 22.939999999999998 4.0275526727182775 23.517552672718274 3.450000000000001 24.229999999999997 3.45 Z M 19.72 3.45 C 20.241756295804628 3.4499999999999997 20.71213710680295 3.7642984095962326 20.91180459693956 4.246338372249033 C 21.11147208707617 4.7283783349018345 21.001105162620874 5.283230332840419 20.632167747730648 5.652167747730646 C 20.26323033284042 6.021105162620874 19.708378334901834 6.131472087076171 19.226338372249035 5.9318045969395605 C 18.744298409596233 5.732137106802949 18.43 5.26175629580463 18.43 4.74 C 18.43 4.0275526727182775 19.007552672718276 3.450000000000001 19.72 3.45 Z M 57.92 65.45 L 64.92 65.45 C 65.23825978780745 65.45 65.54348448328622 65.5764282084385 65.76852813742386 65.80147186257615 C 65.99357179156151 66.02651551671379 66.12 66.33174021219256 66.12 66.65 L 66.12 66.65 C 66.12 66.96825978780745 65.99357179156151 67.27348448328623 65.76852813742386 67.49852813742386 C 65.54348448328622 67.72357179156151 65.23825978780745 67.85000000000001 64.92 67.85000000000001 L 57.92 67.85000000000001 C 57.601740212192546 67.85000000000001 57.29651551671378 67.72357179156151 57.07147186257614 67.49852813742386 C 56.846428208438496 67.27348448328623 56.72 66.96825978780745 56.72 66.65 L 56.72 66.65 C 56.72 66.33174021219256 56.846428208438496 66.02651551671379 57.07147186257614 65.80147186257615 C 57.29651551671378 65.5764282084385 57.601740212192546 65.45 57.92 65.45 Z" stroke-linecap="round" />
</g>
		<g transform="matrix(1 0 0 1 -6.56 4.59)" id="Layer_1"  >
<path style="stroke: none; stroke-width: 1; stroke-dasharray: none; stroke-linecap: butt; stroke-dashoffset: 0; stroke-linejoin: miter; stroke-miterlimit: 4; fill: rgb(255,188,94); fill-rule: evenodd; opacity: 1;" vector-effect="non-scaling-stroke"  transform=" translate(-54.88, -39.78)" d="M 37.25 45.05 C 36.33 45.05 36.33 41.629999999999995 37.25 41.629999999999995 L 74.17 41.629999999999995 C 75.70289640912299 42.6815476539739 77.48642063576368 43.30940337785902 79.34 43.449999999999996 C 80.73097365047136 43.59088247558961 82.13605301220427 43.4653077500241 83.48 43.08 L 85.37 45.08 Z M 25.36 45.05 C 24.45 45.05 24.45 41.629999999999995 25.36 41.629999999999995 L 34 41.629999999999995 C 34.91 41.629999999999995 34.91 45.05 34 45.05 Z M 25.07 37.9 C 24.15 37.9 24.15 34.48 25.07 34.48 L 33.7 34.48 C 34.61 34.48 34.61 37.9 33.7 37.9 Z M 37.25 37.9 C 36.33 37.9 36.33 34.48 37.25 34.48 L 69.3 34.48 L 69.39999999999999 34.699999999999996 C 69.91 35.8 70.39999999999999 36.879999999999995 70.99 37.9 Z" stroke-linecap="round" />
</g>
		<g transform="matrix(1 0 0 1 25.25 -14.03)" id="Layer_1"  >
<path style="stroke: none; stroke-width: 1; stroke-dasharray: none; stroke-linecap: butt; stroke-dashoffset: 0; stroke-linejoin: miter; stroke-miterlimit: 4; fill: rgb(255,188,94); fill-rule: evenodd; opacity: 1;" vector-effect="non-scaling-stroke"  transform=" translate(-86.69, -21.17)" d="M 78.16 13 L 95.16 13 C 95.89981421255865 12.981224551958213 96.61637971863998 13.25926888852595 97.14990616738297 13.772130580451421 C 97.68343261612594 14.284992272376892 97.98955153136453 14.990021340810339 98 15.729999999999999 L 98 26.58 C 97.99451516024646 28.10202822539249 96.76202822539248 29.334515160246468 95.24 29.339999999999996 L 89.51 29.339999999999996 C 89.04408796275524 28.433388738699257 88.45519050095835 27.59547177877111 87.76 26.849999999999994 C 85.65811400818556 24.677373410189578 82.9565005921871 23.180345357510014 80 22.549999999999997 C 78.48233636332314 22.218445696594394 76.933457595453 22.050818124314073 75.38000000000001 22.05 L 75.38 15.73 C 75.40191364956532 14.211912681305323 76.6417650001345 12.994360815458602 78.16 13 Z" stroke-linecap="round" />
</g>
		<g transform="matrix(1 0 0 1 -0.26 -14.02)" id="Layer_1"  >
<path style="stroke: none; stroke-width: 1; stroke-dasharray: none; stroke-linecap: butt; stroke-dashoffset: 0; stroke-linejoin: miter; stroke-miterlimit: 4; fill: rgb(255,188,94); fill-rule: evenodd; opacity: 1;" vector-effect="non-scaling-stroke"  transform=" translate(-61.18, -21.18)" d="M 52.68 13 L 69.68 13 C 71.19812156305682 13.010951700789379 72.42455877630198 14.241848685719079 72.43 15.759999999999998 L 72.43 22.21 C 71.04 22.35 69.76 22.55 68.69000000000001 22.75 C 66.2594914715155 23.224556010121347 64.6605042805578 25.562907751772585 65.1 28.000000000000004 C 65.18410903178493 28.476648350557124 65.34628714316287 28.9361529994613 65.58 29.36 L 52.68 29.36 C 51.15960078846528 29.354491271079315 49.92999002038593 28.12040919111604 49.93 26.6 L 49.93 15.73 C 49.94639018054734 14.221310750726195 51.171231306416466 13.005377560317937 52.68 13 Z" stroke-linecap="round" />
</g>
		<g transform="matrix(1 0 0 1 -25.7 -14.03)" id="Layer_1"  >
<path style="stroke: none; stroke-width: 1; stroke-dasharray: none; stroke-linecap: butt; stroke-dashoffset: 0; stroke-linejoin: miter; stroke-miterlimit: 4; fill: rgb(255,188,94); fill-rule: evenodd; opacity: 1;" vector-effect="non-scaling-stroke"  transform=" translate(-35.74, -21.17)" d="M 27.2 13 L 44.2 13 C 45.72600984310955 12.983314020061485 46.978053662224454 14.204056743698517 47 15.729999999999999 L 47 26.58 C 46.9891051707199 28.099770248192844 45.759770248192844 29.3291051707199 44.24 29.339999999999996 L 27.240000000000002 29.339999999999996 C 25.719600788465286 29.33449127107931 24.48999002038593 28.100409191116036 24.490000000000002 26.58 L 24.490000000000002 15.73 C 24.505988991596602 14.236693809443771 25.706851741778834 13.026968603540636 27.2 13 Z" stroke-linecap="round" />
</g>
		<g transform="matrix(1 0 0 1 32.74 5.99)" id="Layer_1"  >
<path style="stroke: none; stroke-width: 1; stroke-dasharray: none; stroke-linecap: butt; stroke-dashoffset: 0; stroke-linejoin: miter; stroke-miterlimit: 4; fill: rgb(255,188,94); fill-rule: evenodd; opacity: 1;" vector-effect="non-scaling-stroke"  transform=" translate(-94.18, -41.19)" d="M 69.55 27.17 C 74.19 30.26 73.55 38.29 79.81 38.95 C 81.60566809810776 39.121790196954585 83.39182430679932 38.538481577077626 84.74000000000001 37.34 C 85.50927629825102 36.639753714419015 85.98751624225659 35.67613591679586 86.08000000000001 34.64 C 86.48000000000002 30.490000000000002 82.68 27.78 79.08000000000001 26.96 C 75.93651521424485 26.411468740498748 72.71611114278399 26.482806805372885 69.60000000000002 27.17 Z M 88.55 35.38 C 88.31393685420929 36.962411667939236 87.48001364372035 38.39403949710479 86.22 39.38 L 91 44.38 C 93.2025321501596 42.124387238310455 94.79870626878035 39.34828268286444 95.64 36.31 C 93.24834674716448 36.26245476901011 90.86980628768946 35.94375047613264 88.55 35.36 Z M 96.84 37.31 C 95.94477567400648 40.24924232863169 94.41547825663402 42.956235301793214 92.36 45.24 L 114.53 55.19 C 114.99230383621527 55.43004386313491 115.48276154587849 55.61144602972268 115.99 55.73 C 116.78873296842261 55.88832670942402 117.61266307686616 55.62371594645736 118.16984888380988 55.029926692342144 C 118.7270346907536 54.436137438226936 118.93875825257255 53.59705888835911 118.72999999999999 52.809999999999995 C 118.50897053665427 52.19985064708641 118.08073259405985 51.686672947283164 117.52 51.35999999999999 L 96.84 37.35999999999999 Z" stroke-linecap="round" />
</g>
</g>
</g>
<g transform="matrix(NaN NaN NaN NaN 0 0)"  >
<g style=""   >
</g>
</g>
<g transform="matrix(NaN NaN NaN NaN 0 0)"  >
<g style=""   >
</g>
</g>
</svg>