<?xml version="1.0" encoding="UTF-8" standalone="no" ?>
<!DOCTYPE svg PUBLIC "-//W3C//DTD SVG 1.1//EN" "http://www.w3.org/Graphics/SVG/1.1/DTD/svg11.dtd">
<svg xmlns="http://www.w3.org/2000/svg" xmlns:xlink="http://www.w3.org/1999/xlink" version="1.1" width="1080" height="1080" viewBox="0 0 1080 1080" xml:space="preserve">
<desc>Created with Fabric.js 5.2.4</desc>
<defs>
</defs>
<rect x="0" y="0" width="100%" height="100%" fill="transparent"></rect>
<g transform="matrix(1 0 0 1 540 540)" id="4f53f578-c4c3-4774-b1ef-6b7baca1b361"  >
<rect style="stroke: none; stroke-width: 1; stroke-dasharray: none; stroke-linecap: butt; stroke-dashoffset: 0; stroke-linejoin: miter; stroke-miterlimit: 4; fill: rgb(255,255,255); fill-rule: nonzero; opacity: 1; visibility: hidden;" vector-effect="non-scaling-stroke"  x="-540" y="-540" rx="0" ry="0" width="1080" height="1080" />
</g>
<g transform="matrix(1 0 0 1 540 540)" id="edf55288-a517-4676-9db4-ae289ff17891"  >
</g>
<g transform="matrix(NaN NaN NaN NaN 0 0)"  >
<g style=""   >
</g>
</g>
<g transform="matrix(NaN NaN NaN NaN 0 0)"  >
<g style=""   >
</g>
</g>
<g transform="matrix(NaN NaN NaN NaN 0 0)"  >
<g style=""   >
</g>
</g>
<g transform="matrix(NaN NaN NaN NaN 0 0)"  >
<g style=""   >
</g>
</g>
<g transform="matrix(NaN NaN NaN NaN 0 0)"  >
<g style=""   >
</g>
</g>
<g transform="matrix(10.51 0 0 10.51 540 540)" id="Layer_1"  >
<path style="stroke: none; stroke-width: 1; stroke-dasharray: none; stroke-linecap: butt; stroke-dashoffset: 0; stroke-linejoin: miter; stroke-miterlimit: 4; fill: rgb(255,188,94); fill-rule: evenodd; opacity: 1;"  transform=" translate(-51.36, -61.45)" d="M 31.25 37 C 30.13 37.04 29.29 37.27 28.71 37.66 C 28.380000000000003 37.879999999999995 28.14 38.16 27.98 38.5 C 27.81 38.87 27.73 39.33 27.740000000000002 39.85 C 27.78 41.38 28.590000000000003 43.38 30.14 45.68 L 30.16 45.71 L 35.19 53.71 C 37.21 56.92 39.32 60.19 41.949999999999996 62.59 C 44.48 64.9 47.53999999999999 66.46000000000001 51.599999999999994 66.47 C 55.989999999999995 66.48 59.199999999999996 64.86 61.809999999999995 62.42 C 64.52 59.88 66.66 56.400000000000006 68.77 52.93 L 74.44 43.6 C 75.5 41.19 75.88 39.58 75.64 38.63 C 75.5 38.07 74.88 37.79 73.82000000000001 37.74 C 73.60000000000001 37.730000000000004 73.36000000000001 37.730000000000004 73.13000000000001 37.730000000000004 C 72.88000000000001 37.74 72.61000000000001 37.75000000000001 72.34 37.78 C 72.19 37.79 72.04 37.78 71.9 37.75 C 71.4 37.78 70.88000000000001 37.74 70.35000000000001 37.67 L 72.29 29.080000000000002 C 57.89000000000001 31.35 47.120000000000005 20.660000000000004 31.910000000000004 26.94 L 33 37.06 C 32.36 37.1 31.78 37.08 31.25 37 L 31.25 37 L 31.25 37 L 31.25 37 L 31.25 37 z M 35.45 98.09 L 38.660000000000004 98.09 C 40.730000000000004 98.09 42.13 98.19 42.86000000000001 98.38000000000001 C 43.59 98.57000000000001 44.150000000000006 98.88000000000001 44.53000000000001 99.32000000000001 C 44.91000000000001 99.75000000000001 45.150000000000006 100.24000000000001 45.24000000000001 100.77000000000001 C 45.34000000000001 101.31000000000002 45.38000000000001 102.35000000000001 45.38000000000001 103.92000000000002 L 45.38000000000001 109.70000000000002 C 45.38000000000001 111.18000000000002 45.31000000000001 112.17000000000002 45.17000000000001 112.67000000000002 C 45.03000000000001 113.17000000000002 44.790000000000006 113.56000000000002 44.44000000000001 113.84000000000002 C 44.09000000000001 114.12000000000002 43.67000000000001 114.32000000000002 43.15000000000001 114.43000000000002 C 42.640000000000015 114.54000000000002 41.87000000000001 114.60000000000002 40.850000000000016 114.60000000000002 L 35.44000000000001 114.60000000000002 L 35.44000000000001 98.09 L 35.45 98.09 z M 39.75 100.91 L 39.75 111.78 C 40.36 111.78 40.73 111.65 40.87 111.41 C 41.01 111.16 41.08 110.49 41.08 109.38 L 41.08 102.96 C 41.08 102.21 41.05 101.72999999999999 41.01 101.52 C 40.96 101.31 40.86 101.14999999999999 40.69 101.06 C 40.52 100.96 40.21 100.91 39.75 100.91 L 39.75 100.91 z M 47.71 98.09 L 54.86 98.09 L 54.86 101.39 L 52 101.39 L 52 104.54 L 54.67 104.54 L 54.67 107.67 L 52 107.67 L 52 111.3 L 55.15 111.3 L 55.15 114.6 L 47.699999999999996 114.6 L 47.699999999999996 98.09 L 47.71 98.09 z M 67.28 98.09 L 65.11 114.59 L 58.61 114.59 L 56.12 98.09 L 60.65 98.09 C 61.16 102.64 61.53 106.49000000000001 61.769999999999996 109.63 C 61.99999999999999 106.44999999999999 62.24999999999999 103.63 62.48 101.16 L 62.76 98.08 L 67.28 98.08 L 67.28 98.09 z M 31.66 97.21 L 31.66 100.32 L 31.23 100.32 C 30.84 100.32 30.54 100.39999999999999 30.34 100.57 C 30.14 100.74 30 100.99 29.919999999999998 101.35 C 29.869999999999997 101.53999999999999 29.849999999999998 102.05999999999999 29.84 102.91 C 29.83 103.75999999999999 29.74 104.44 29.57 104.92999999999999 C 29.44 105.30999999999999 29.26 105.61 29.03 105.83999999999999 C 28.85 106.00999999999999 28.560000000000002 106.17999999999999 28.150000000000002 106.35999999999999 C 28.570000000000004 106.55999999999999 28.89 106.75999999999999 29.090000000000003 106.97999999999999 C 29.300000000000004 107.18999999999998 29.470000000000002 107.52 29.620000000000005 107.94999999999999 C 29.770000000000003 108.38 29.840000000000003 109.07999999999998 29.840000000000003 110.02999999999999 C 29.840000000000003 110.88999999999999 29.890000000000004 111.43999999999998 29.970000000000002 111.69999999999999 C 30.060000000000002 111.96 30.200000000000003 112.14999999999999 30.410000000000004 112.24999999999999 C 30.620000000000005 112.35999999999999 31.030000000000005 112.40999999999998 31.650000000000002 112.40999999999998 L 31.650000000000002 115.47999999999998 L 30.46 115.47999999999998 C 29.23 115.47999999999998 28.35 115.33999999999997 27.830000000000002 115.06999999999998 C 27.310000000000002 114.79999999999998 26.94 114.40999999999998 26.720000000000002 113.88999999999997 C 26.500000000000004 113.36999999999998 26.390000000000004 112.59999999999997 26.390000000000004 111.55999999999997 C 26.390000000000004 111.32999999999997 26.400000000000006 111.09999999999998 26.410000000000004 110.87999999999997 C 26.420000000000005 110.73999999999997 26.420000000000005 110.59999999999997 26.420000000000005 110.44999999999996 C 26.420000000000005 109.70999999999997 26.350000000000005 109.18999999999996 26.220000000000006 108.87999999999997 C 26.090000000000007 108.56999999999996 25.900000000000006 108.33999999999996 25.640000000000008 108.19999999999996 C 25.390000000000008 108.05999999999996 25.03000000000001 107.98999999999997 24.550000000000008 107.96999999999996 L 24.550000000000008 104.71999999999996 C 25.040000000000006 104.71999999999996 25.410000000000007 104.63999999999996 25.65000000000001 104.48999999999995 C 25.89000000000001 104.33999999999995 26.08000000000001 104.09999999999995 26.210000000000008 103.78999999999995 C 26.340000000000007 103.47999999999995 26.40000000000001 102.93999999999996 26.40000000000001 102.19999999999995 L 26.40000000000001 101.87999999999995 C 26.390000000000008 101.72999999999995 26.390000000000008 101.58999999999995 26.390000000000008 101.43999999999996 C 26.390000000000008 100.31999999999995 26.480000000000008 99.49999999999996 26.67000000000001 99.00999999999995 C 26.86000000000001 98.50999999999995 27.11000000000001 98.11999999999995 27.44000000000001 97.85999999999994 C 27.69000000000001 97.64999999999995 28.020000000000007 97.49999999999994 28.45000000000001 97.39999999999995 C 29.01000000000001 97.26999999999995 29.65000000000001 97.19999999999995 30.37000000000001 97.19999999999995 L 31.66 97.19999999999995 L 31.66 97.21 z M 71.07 97.21 L 71.07 100.32 L 71.49 100.32 C 71.88 100.32 72.17999999999999 100.39999999999999 72.38 100.57 C 72.58 100.74 72.72 100.99 72.8 101.35 C 72.85 101.53999999999999 72.86999999999999 102.05999999999999 72.88 102.91 C 72.89 103.75999999999999 72.97999999999999 104.44 73.14999999999999 104.92999999999999 C 73.27999999999999 105.30999999999999 73.46 105.61 73.69 105.83999999999999 C 73.87 106.00999999999999 74.16 106.17999999999999 74.57 106.35999999999999 C 74.14999999999999 106.55999999999999 73.83 106.75999999999999 73.63 106.97999999999999 C 73.42 107.18999999999998 73.25 107.52 73.1 107.94999999999999 C 72.94999999999999 108.38 72.88 109.07999999999998 72.88 110.02999999999999 C 72.88 110.88999999999999 72.83999999999999 111.43999999999998 72.75 111.69999999999999 C 72.66 111.96 72.52 112.14999999999999 72.31 112.24999999999999 C 72.10000000000001 112.35999999999999 71.69 112.40999999999998 71.07000000000001 112.40999999999998 L 71.07000000000001 115.47999999999998 L 72.26 115.47999999999998 C 73.5 115.47999999999998 74.37 115.33999999999997 74.89 115.06999999999998 C 75.41 114.79999999999998 75.78 114.40999999999998 76 113.88999999999997 C 76.22 113.36999999999998 76.33 112.59999999999997 76.33 111.55999999999997 C 76.33 111.32999999999997 76.32 111.09999999999998 76.31 110.87999999999997 C 76.3 110.73999999999997 76.3 110.59999999999997 76.3 110.44999999999996 C 76.3 109.70999999999997 76.36999999999999 109.18999999999996 76.5 108.87999999999997 C 76.63 108.56999999999996 76.82 108.33999999999996 77.08 108.19999999999996 C 77.33 108.05999999999996 77.69 107.98999999999997 78.17 107.96999999999996 L 78.17 104.71999999999996 C 77.68 104.71999999999996 77.31 104.63999999999996 77.07000000000001 104.48999999999995 C 76.82000000000001 104.33999999999995 76.64 104.09999999999995 76.51 103.78999999999995 C 76.38000000000001 103.47999999999995 76.32000000000001 102.93999999999996 76.32000000000001 102.19999999999995 L 76.32000000000001 101.87999999999995 C 76.33000000000001 101.72999999999995 76.33000000000001 101.58999999999995 76.33000000000001 101.43999999999996 C 76.33000000000001 100.31999999999995 76.24000000000001 99.49999999999996 76.05000000000001 99.00999999999995 C 75.86000000000001 98.50999999999995 75.60000000000001 98.11999999999995 75.28000000000002 97.85999999999994 C 75.03000000000002 97.64999999999995 74.70000000000002 97.49999999999994 74.27000000000001 97.39999999999995 C 73.71000000000001 97.26999999999995 73.07000000000001 97.19999999999995 72.35000000000001 97.19999999999995 L 71.07 97.19999999999995 L 71.07 97.21 z M 75.72 35.19 L 75.72 35.19 L 75.72 35.19 C 75.92999999999999 26.419999999999998 77.53999999999999 17.56 71.3 10.369999999999997 C 66.86 5.25 55.28 0.42 47.77 0.01 C 44.6 -0.16 45.81 2.42 42.68000000000001 3.5 C 36.220000000000006 5.73 30.570000000000007 10.469999999999999 28.720000000000006 17.05 C 28.420000000000005 18.130000000000003 28.210000000000004 19.22 28.100000000000005 20.310000000000002 C 27.890000000000004 24.89 28.010000000000005 30.35 28.340000000000003 34.690000000000005 C 27.890000000000004 34.86000000000001 27.480000000000004 35.07000000000001 27.120000000000005 35.31 C 26.340000000000003 35.830000000000005 25.770000000000003 36.510000000000005 25.390000000000004 37.32 C 25.030000000000005 38.09 24.870000000000005 38.97 24.900000000000006 39.94 C 24.960000000000004 42 25.910000000000007 44.5 27.750000000000007 47.25 L 32.78000000000001 55.25 C 34.540000000000006 58.05 36.38000000000001 60.9 38.620000000000005 63.31 C 38.510000000000005 63.63 38.63 63.28 38.56 63.49 C 37.940000000000005 65.37 36.900000000000006 68.51 35.97 70.27 C 29.86 74.27 15.869999999999997 75.3 10.439999999999998 78.33 C -4.380000000000003 86.59 0.9699999999999971 103.62 0.7899999999999974 117.68 C 1.0799999999999974 120.82000000000001 2.859999999999997 122.62 6.359999999999998 122.89 L 10.149999999999999 122.89 L 5.999999999999998 91.39 C 5.679999999999998 88.94 7.419999999999998 86.93 9.559999999999999 86.93 L 29.029999999999998 86.93 L 52.01 86.93 C 51.22 81.83000000000001 38.03 76.91000000000001 37.56 73.07000000000001 C 37.690000000000005 72.98 37.81 72.86000000000001 37.910000000000004 72.72000000000001 C 39.03 71.16000000000001 40.190000000000005 67.91000000000001 40.99 65.54000000000002 C 43.82 67.83000000000003 47.22 69.33000000000003 51.59 69.34000000000002 C 55.510000000000005 69.35000000000002 58.64 68.26000000000002 61.27 66.49000000000002 C 61.53 66.86000000000003 61.790000000000006 67.25000000000003 62.07 67.66000000000003 C 63.32 69.50000000000003 64.78 71.63000000000002 66.14 73.15000000000002 C 65.85 77.52000000000002 54.41 77.57000000000002 53.11 86.93000000000002 L 93.84 86.93000000000002 C 95.98 86.93000000000002 97.73 88.94000000000003 97.4 91.39000000000001 L 93.25 122.89000000000001 L 97.04 122.89000000000001 C 100.54 122.62000000000002 102.32000000000001 120.82000000000002 102.62 117.68000000000002 C 101.63000000000001 104.39000000000001 106.61 85.93000000000002 92.97 78.33000000000001 C 87.61 75.34000000000002 73.91 74.30000000000001 67.68 70.43 C 66.63000000000001 69.13000000000001 65.5 67.47000000000001 64.5 66.01 C 64.18 65.53 63.87 65.08 63.58 64.67 L 63.73 64.54 C 66.72 61.74000000000001 68.97 58.09 71.17999999999999 54.45 L 76.92 45 C 76.95 44.95 76.98 44.89 77.01 44.84 L 77.01 44.84 C 78.35000000000001 41.790000000000006 78.79 39.550000000000004 78.39 37.970000000000006 C 78.01 36.5 77.13 35.62 75.72 35.19 L 75.72 35.19 L 75.72 35.19 z" stroke-linecap="round" />
</g>
<g transform="matrix(NaN NaN NaN NaN 0 0)"  >
<g style=""   >
</g>
</g>
<g transform="matrix(NaN NaN NaN NaN 0 0)"  >
<g style=""   >
</g>
</g>
<g transform="matrix(NaN NaN NaN NaN 0 0)"  >
<g style=""   >
</g>
</g>
</svg>